# xmcd CD database file
#
# Track frame offsets:
#	150
#	24113
#	44147
#	71198
#	92044
#	106026
#	131524
#	151991
#	170084
#	188937
#	216228
#	236026
#	254398
#	271058
#
# Disc length: 3871 seconds
#
# Revision: 0
# Processed by: cddbd v1.5.2PL0 Copyright (c) Steve Scherf et al.
# Submitted via: CDex 1.70beta2
#
DISCID=c60f1d0e
DTITLE=Chris Rhodes - iNTUNe
DYEAR=2006
DGENRE=Jazz
TTITLE0=Joshua
TTITLE1=Oh Sara!
TTITLE2=There's No Good in This Goodbye
TTITLE3=Wake Up and Smell the Coffee
TTITLE4=Blind Tiger
TTITLE5=Praying for Amnesia
TTITLE6=September Sky
TTITLE7=Through the Eyes of A Boy
TTITLE8=Coming From the Likes of You
TTITLE9=When He Breaks Your Heart
TTITLE10=Polynesian Moon
TTITLE11=Blockbuster
TTITLE12=Blackberry Winter
TTITLE13=So Strangely Beautiful
EXTD=YEAR: 2006
EXTT0=
EXTT1=
EXTT2=
EXTT3=
EXTT4=
EXTT5=
EXTT6=
EXTT7=
EXTT8=
EXTT9=
EXTT10=
EXTT11=
EXTT12=
EXTT13=
PLAYORDER=
